<mxfile host="app.diagrams.net" agent="Mozilla/5.0 (Macintosh; Intel Mac OS X 10_15_7) AppleWebKit/537.36 (KHTML, like Gecko) Chrome/138.0.0.0 Safari/537.36" version="28.0.0">
  <diagram name="Page-1" id="JhoDnElghK666j0AD0OJ">
    <mxGraphModel dx="1234" dy="790" grid="1" gridSize="10" guides="1" tooltips="1" connect="1" arrows="1" fold="1" page="0" pageScale="1" pageWidth="1100" pageHeight="850" math="0" shadow="0">
      <root>
        <mxCell id="0" />
        <mxCell id="1" parent="0" />
        <mxCell id="WlVKkbRP_xvuHNhss2kr-95" value="" style="rounded=0;whiteSpace=wrap;html=1;fontFamily=Helvetica;fontSize=11;fontColor=default;labelBackgroundColor=default;" vertex="1" parent="1">
          <mxGeometry x="830" y="490" width="845" height="450" as="geometry" />
        </mxCell>
        <mxCell id="WlVKkbRP_xvuHNhss2kr-93" style="edgeStyle=none;shape=connector;rounded=0;orthogonalLoop=1;jettySize=auto;html=1;entryX=0;entryY=0.5;entryDx=0;entryDy=0;strokeColor=default;align=center;verticalAlign=middle;fontFamily=Helvetica;fontSize=11;fontColor=default;labelBackgroundColor=default;endArrow=classic;" edge="1" parent="1" source="WlVKkbRP_xvuHNhss2kr-88" target="WlVKkbRP_xvuHNhss2kr-71">
          <mxGeometry relative="1" as="geometry" />
        </mxCell>
        <mxCell id="WlVKkbRP_xvuHNhss2kr-88" value="" style="rounded=1;whiteSpace=wrap;html=1;fontFamily=Helvetica;fontSize=11;labelBackgroundColor=default;fillColor=#cce5ff;strokeColor=#36393d;" vertex="1" parent="1">
          <mxGeometry x="860" y="552.5" width="120" height="310" as="geometry" />
        </mxCell>
        <mxCell id="WlVKkbRP_xvuHNhss2kr-59" value="" style="rounded=0;whiteSpace=wrap;html=1;fontFamily=Helvetica;fontSize=11;fontColor=default;labelBackgroundColor=default;" vertex="1" parent="1">
          <mxGeometry x="980" y="50" width="670" height="370" as="geometry" />
        </mxCell>
        <mxCell id="WlVKkbRP_xvuHNhss2kr-46" value="" style="rounded=0;whiteSpace=wrap;html=1;fontFamily=Helvetica;fontSize=11;fontColor=default;labelBackgroundColor=default;" vertex="1" parent="1">
          <mxGeometry x="1160" y="70" width="270" height="320" as="geometry" />
        </mxCell>
        <mxCell id="WlVKkbRP_xvuHNhss2kr-31" value="" style="rounded=0;whiteSpace=wrap;html=1;fontFamily=Helvetica;fontSize=11;fontColor=default;labelBackgroundColor=default;" vertex="1" parent="1">
          <mxGeometry y="520" width="740" height="190" as="geometry" />
        </mxCell>
        <mxCell id="WlVKkbRP_xvuHNhss2kr-13" value="" style="rounded=0;whiteSpace=wrap;html=1;fontFamily=Helvetica;fontSize=11;fontColor=default;labelBackgroundColor=default;" vertex="1" parent="1">
          <mxGeometry x="270" y="150" width="550" height="310" as="geometry" />
        </mxCell>
        <mxCell id="WlVKkbRP_xvuHNhss2kr-4" style="rounded=0;orthogonalLoop=1;jettySize=auto;html=1;entryX=0;entryY=0.5;entryDx=0;entryDy=0;" edge="1" parent="1" source="WlVKkbRP_xvuHNhss2kr-1" target="WlVKkbRP_xvuHNhss2kr-2">
          <mxGeometry relative="1" as="geometry" />
        </mxCell>
        <mxCell id="WlVKkbRP_xvuHNhss2kr-9" value="" style="edgeStyle=none;shape=connector;rounded=0;orthogonalLoop=1;jettySize=auto;html=1;strokeColor=default;align=center;verticalAlign=middle;fontFamily=Helvetica;fontSize=11;fontColor=default;labelBackgroundColor=default;endArrow=classic;" edge="1" parent="1" source="WlVKkbRP_xvuHNhss2kr-1" target="WlVKkbRP_xvuHNhss2kr-6">
          <mxGeometry relative="1" as="geometry" />
        </mxCell>
        <mxCell id="WlVKkbRP_xvuHNhss2kr-1" value="Clients" style="ellipse;shape=cloud;whiteSpace=wrap;html=1;fillColor=#dae8fc;strokeColor=#6c8ebf;" vertex="1" parent="1">
          <mxGeometry x="270" y="240" width="120" height="80" as="geometry" />
        </mxCell>
        <mxCell id="WlVKkbRP_xvuHNhss2kr-5" value="" style="edgeStyle=none;shape=connector;rounded=0;orthogonalLoop=1;jettySize=auto;html=1;strokeColor=default;align=center;verticalAlign=middle;fontFamily=Helvetica;fontSize=11;fontColor=default;labelBackgroundColor=default;endArrow=classic;" edge="1" parent="1" source="WlVKkbRP_xvuHNhss2kr-2" target="WlVKkbRP_xvuHNhss2kr-3">
          <mxGeometry relative="1" as="geometry" />
        </mxCell>
        <mxCell id="WlVKkbRP_xvuHNhss2kr-2" value="Block Service" style="rounded=1;whiteSpace=wrap;html=1;fillColor=#ffe6cc;strokeColor=#d79b00;" vertex="1" parent="1">
          <mxGeometry x="490" y="170" width="120" height="60" as="geometry" />
        </mxCell>
        <mxCell id="WlVKkbRP_xvuHNhss2kr-3" value="Block/Cloud Storage" style="shape=datastore;whiteSpace=wrap;html=1;fillColor=#f5f5f5;fontColor=#333333;strokeColor=#666666;" vertex="1" parent="1">
          <mxGeometry x="670" y="170" width="130" height="60" as="geometry" />
        </mxCell>
        <mxCell id="WlVKkbRP_xvuHNhss2kr-8" value="" style="edgeStyle=none;shape=connector;rounded=0;orthogonalLoop=1;jettySize=auto;html=1;strokeColor=default;align=center;verticalAlign=middle;fontFamily=Helvetica;fontSize=11;fontColor=default;labelBackgroundColor=default;endArrow=classic;" edge="1" parent="1" source="WlVKkbRP_xvuHNhss2kr-6" target="WlVKkbRP_xvuHNhss2kr-7">
          <mxGeometry relative="1" as="geometry" />
        </mxCell>
        <mxCell id="WlVKkbRP_xvuHNhss2kr-11" value="" style="edgeStyle=none;shape=connector;rounded=0;orthogonalLoop=1;jettySize=auto;html=1;strokeColor=default;align=center;verticalAlign=middle;fontFamily=Helvetica;fontSize=11;fontColor=default;labelBackgroundColor=default;endArrow=classic;" edge="1" parent="1" source="WlVKkbRP_xvuHNhss2kr-6" target="WlVKkbRP_xvuHNhss2kr-10">
          <mxGeometry relative="1" as="geometry" />
        </mxCell>
        <mxCell id="WlVKkbRP_xvuHNhss2kr-6" value="Metadata Service" style="rounded=1;whiteSpace=wrap;html=1;fillColor=#ffe6cc;strokeColor=#d79b00;" vertex="1" parent="1">
          <mxGeometry x="490" y="270" width="120" height="60" as="geometry" />
        </mxCell>
        <mxCell id="WlVKkbRP_xvuHNhss2kr-7" value="Metadata Storage" style="shape=cylinder3;whiteSpace=wrap;html=1;boundedLbl=1;backgroundOutline=1;size=15;fontFamily=Helvetica;fontSize=11;fontColor=#333333;labelBackgroundColor=default;fillColor=#f5f5f5;strokeColor=#666666;" vertex="1" parent="1">
          <mxGeometry x="685" y="260" width="115" height="80" as="geometry" />
        </mxCell>
        <mxCell id="WlVKkbRP_xvuHNhss2kr-12" style="edgeStyle=none;shape=connector;rounded=0;orthogonalLoop=1;jettySize=auto;html=1;strokeColor=default;align=center;verticalAlign=middle;fontFamily=Helvetica;fontSize=11;fontColor=default;labelBackgroundColor=default;endArrow=classic;entryX=0.8;entryY=0.8;entryDx=0;entryDy=0;entryPerimeter=0;" edge="1" parent="1" source="WlVKkbRP_xvuHNhss2kr-16" target="WlVKkbRP_xvuHNhss2kr-1">
          <mxGeometry relative="1" as="geometry">
            <mxPoint x="410" y="490" as="targetPoint" />
          </mxGeometry>
        </mxCell>
        <mxCell id="WlVKkbRP_xvuHNhss2kr-10" value="Synchronization service" style="rounded=1;whiteSpace=wrap;html=1;fillColor=#ffe6cc;strokeColor=#d79b00;" vertex="1" parent="1">
          <mxGeometry x="490" y="380" width="120" height="60" as="geometry" />
        </mxCell>
        <mxCell id="WlVKkbRP_xvuHNhss2kr-14" style="edgeStyle=none;shape=connector;rounded=0;orthogonalLoop=1;jettySize=auto;html=1;exitX=0;exitY=0.5;exitDx=0;exitDy=0;strokeColor=default;align=center;verticalAlign=middle;fontFamily=Helvetica;fontSize=11;fontColor=default;labelBackgroundColor=default;endArrow=classic;" edge="1" parent="1" source="WlVKkbRP_xvuHNhss2kr-13" target="WlVKkbRP_xvuHNhss2kr-13">
          <mxGeometry relative="1" as="geometry" />
        </mxCell>
        <mxCell id="WlVKkbRP_xvuHNhss2kr-16" value="Message Queue" style="strokeWidth=2;html=1;shape=mxgraph.flowchart.direct_data;whiteSpace=wrap;fontFamily=Helvetica;fontSize=11;fontColor=default;labelBackgroundColor=default;" vertex="1" parent="1">
          <mxGeometry x="310" y="350" width="140" height="30" as="geometry" />
        </mxCell>
        <mxCell id="WlVKkbRP_xvuHNhss2kr-17" value="" style="edgeStyle=none;shape=connector;rounded=0;orthogonalLoop=1;jettySize=auto;html=1;strokeColor=default;align=center;verticalAlign=middle;fontFamily=Helvetica;fontSize=11;fontColor=default;labelBackgroundColor=default;endArrow=classic;entryX=0.558;entryY=0.967;entryDx=0;entryDy=0;entryPerimeter=0;" edge="1" parent="1" source="WlVKkbRP_xvuHNhss2kr-10" target="WlVKkbRP_xvuHNhss2kr-16">
          <mxGeometry relative="1" as="geometry">
            <mxPoint x="366" y="304" as="targetPoint" />
            <mxPoint x="498" y="380" as="sourcePoint" />
          </mxGeometry>
        </mxCell>
        <mxCell id="WlVKkbRP_xvuHNhss2kr-27" style="edgeStyle=none;shape=connector;rounded=0;orthogonalLoop=1;jettySize=auto;html=1;entryX=0;entryY=0.5;entryDx=0;entryDy=0;strokeColor=default;align=center;verticalAlign=middle;fontFamily=Helvetica;fontSize=11;fontColor=default;labelBackgroundColor=default;endArrow=classic;startArrow=classic;startFill=0;endFill=0;" edge="1" parent="1" source="WlVKkbRP_xvuHNhss2kr-18" target="WlVKkbRP_xvuHNhss2kr-24">
          <mxGeometry relative="1" as="geometry" />
        </mxCell>
        <mxCell id="WlVKkbRP_xvuHNhss2kr-29" style="edgeStyle=none;shape=connector;rounded=0;orthogonalLoop=1;jettySize=auto;html=1;entryX=0;entryY=0.5;entryDx=0;entryDy=0;strokeColor=default;align=center;verticalAlign=middle;fontFamily=Helvetica;fontSize=11;fontColor=default;labelBackgroundColor=default;endArrow=classic;startArrow=classic;startFill=0;" edge="1" parent="1" source="WlVKkbRP_xvuHNhss2kr-18" target="WlVKkbRP_xvuHNhss2kr-25">
          <mxGeometry relative="1" as="geometry" />
        </mxCell>
        <mxCell id="WlVKkbRP_xvuHNhss2kr-18" value="" style="rounded=1;whiteSpace=wrap;html=1;fontFamily=Helvetica;fontSize=11;fontColor=default;labelBackgroundColor=default;" vertex="1" parent="1">
          <mxGeometry x="30" y="550" width="270" height="150" as="geometry" />
        </mxCell>
        <mxCell id="WlVKkbRP_xvuHNhss2kr-19" value="Chunker" style="rounded=1;whiteSpace=wrap;html=1;fontFamily=Helvetica;fontSize=11;labelBackgroundColor=default;fillColor=#d5e8d4;strokeColor=#82b366;" vertex="1" parent="1">
          <mxGeometry x="50" y="570" width="100" height="40" as="geometry" />
        </mxCell>
        <mxCell id="WlVKkbRP_xvuHNhss2kr-20" value="Indexer" style="rounded=1;whiteSpace=wrap;html=1;fontFamily=Helvetica;fontSize=11;labelBackgroundColor=default;fillColor=#dae8fc;strokeColor=#6c8ebf;" vertex="1" parent="1">
          <mxGeometry x="170" y="570" width="100" height="40" as="geometry" />
        </mxCell>
        <mxCell id="WlVKkbRP_xvuHNhss2kr-21" value="Watcher" style="rounded=1;whiteSpace=wrap;html=1;fontFamily=Helvetica;fontSize=11;labelBackgroundColor=default;fillColor=#fff2cc;strokeColor=#d6b656;" vertex="1" parent="1">
          <mxGeometry x="50" y="630" width="100" height="40" as="geometry" />
        </mxCell>
        <mxCell id="WlVKkbRP_xvuHNhss2kr-22" value="Internal DB" style="rounded=1;whiteSpace=wrap;html=1;fontFamily=Helvetica;fontSize=11;labelBackgroundColor=default;fillColor=#f8cecc;strokeColor=#b85450;" vertex="1" parent="1">
          <mxGeometry x="170" y="630" width="100" height="40" as="geometry" />
        </mxCell>
        <mxCell id="WlVKkbRP_xvuHNhss2kr-24" value="Block/Cloud Storage" style="shape=datastore;whiteSpace=wrap;html=1;fillColor=#f5f5f5;fontColor=#333333;strokeColor=#666666;" vertex="1" parent="1">
          <mxGeometry x="400" y="540" width="130" height="60" as="geometry" />
        </mxCell>
        <mxCell id="WlVKkbRP_xvuHNhss2kr-25" value="Metadata Service" style="rounded=1;whiteSpace=wrap;html=1;fillColor=#ffe6cc;strokeColor=#d79b00;" vertex="1" parent="1">
          <mxGeometry x="400" y="630" width="120" height="60" as="geometry" />
        </mxCell>
        <mxCell id="WlVKkbRP_xvuHNhss2kr-26" value="Metadata Storage" style="shape=cylinder3;whiteSpace=wrap;html=1;boundedLbl=1;backgroundOutline=1;size=15;fontFamily=Helvetica;fontSize=11;fontColor=#333333;labelBackgroundColor=default;fillColor=#f5f5f5;strokeColor=#666666;" vertex="1" parent="1">
          <mxGeometry x="580" y="625" width="120" height="70" as="geometry" />
        </mxCell>
        <mxCell id="WlVKkbRP_xvuHNhss2kr-30" style="edgeStyle=none;shape=connector;rounded=0;orthogonalLoop=1;jettySize=auto;html=1;entryX=0;entryY=0.5;entryDx=0;entryDy=0;strokeColor=default;align=center;verticalAlign=middle;fontFamily=Helvetica;fontSize=11;fontColor=default;labelBackgroundColor=default;endArrow=classic;startArrow=classic;startFill=0;exitX=1;exitY=0.5;exitDx=0;exitDy=0;entryPerimeter=0;" edge="1" parent="1" source="WlVKkbRP_xvuHNhss2kr-25" target="WlVKkbRP_xvuHNhss2kr-26">
          <mxGeometry relative="1" as="geometry">
            <mxPoint x="350" y="650" as="sourcePoint" />
            <mxPoint x="450" y="665" as="targetPoint" />
          </mxGeometry>
        </mxCell>
        <mxCell id="WlVKkbRP_xvuHNhss2kr-33" value="Client1" style="verticalLabelPosition=bottom;html=1;verticalAlign=top;align=center;strokeColor=none;fillColor=#00BEF2;shape=mxgraph.azure.laptop;pointerEvents=1;fontFamily=Helvetica;fontSize=11;fontColor=default;labelBackgroundColor=default;" vertex="1" parent="1">
          <mxGeometry x="1000" y="100" width="100" height="60" as="geometry" />
        </mxCell>
        <mxCell id="WlVKkbRP_xvuHNhss2kr-48" style="edgeStyle=none;shape=connector;rounded=0;orthogonalLoop=1;jettySize=auto;html=1;strokeColor=default;align=center;verticalAlign=middle;fontFamily=Helvetica;fontSize=11;fontColor=default;labelBackgroundColor=default;endArrow=classic;" edge="1" parent="1" source="WlVKkbRP_xvuHNhss2kr-34">
          <mxGeometry relative="1" as="geometry">
            <mxPoint x="1200" y="120" as="targetPoint" />
          </mxGeometry>
        </mxCell>
        <mxCell id="WlVKkbRP_xvuHNhss2kr-34" value="Client2" style="verticalLabelPosition=bottom;html=1;verticalAlign=top;align=center;strokeColor=none;fillColor=#00BEF2;shape=mxgraph.azure.laptop;pointerEvents=1;fontFamily=Helvetica;fontSize=11;fontColor=default;labelBackgroundColor=default;" vertex="1" parent="1">
          <mxGeometry x="1000" y="210" width="100" height="60" as="geometry" />
        </mxCell>
        <mxCell id="WlVKkbRP_xvuHNhss2kr-49" style="edgeStyle=none;shape=connector;rounded=0;orthogonalLoop=1;jettySize=auto;html=1;strokeColor=default;align=center;verticalAlign=middle;fontFamily=Helvetica;fontSize=11;fontColor=default;labelBackgroundColor=default;endArrow=classic;" edge="1" parent="1" source="WlVKkbRP_xvuHNhss2kr-36">
          <mxGeometry relative="1" as="geometry">
            <mxPoint x="1200" y="120" as="targetPoint" />
          </mxGeometry>
        </mxCell>
        <mxCell id="WlVKkbRP_xvuHNhss2kr-36" value="Client3" style="verticalLabelPosition=bottom;html=1;verticalAlign=top;align=center;strokeColor=none;fillColor=#00BEF2;shape=mxgraph.azure.laptop;pointerEvents=1;fontFamily=Helvetica;fontSize=11;fontColor=default;labelBackgroundColor=default;" vertex="1" parent="1">
          <mxGeometry x="1000" y="320" width="100" height="60" as="geometry" />
        </mxCell>
        <mxCell id="WlVKkbRP_xvuHNhss2kr-50" style="edgeStyle=none;shape=connector;rounded=0;orthogonalLoop=1;jettySize=auto;html=1;entryX=0;entryY=0.25;entryDx=0;entryDy=0;strokeColor=default;align=center;verticalAlign=middle;fontFamily=Helvetica;fontSize=11;fontColor=default;labelBackgroundColor=default;endArrow=classic;" edge="1" parent="1" source="WlVKkbRP_xvuHNhss2kr-40" target="WlVKkbRP_xvuHNhss2kr-44">
          <mxGeometry relative="1" as="geometry" />
        </mxCell>
        <mxCell id="WlVKkbRP_xvuHNhss2kr-40" value="Request Queue" style="strokeWidth=2;html=1;shape=mxgraph.flowchart.direct_data;whiteSpace=wrap;fontFamily=Helvetica;fontSize=11;fontColor=default;labelBackgroundColor=default;" vertex="1" parent="1">
          <mxGeometry x="1200" y="100" width="200" height="40" as="geometry" />
        </mxCell>
        <mxCell id="WlVKkbRP_xvuHNhss2kr-41" value="Response Queue" style="strokeWidth=2;html=1;shape=mxgraph.flowchart.direct_data;whiteSpace=wrap;fontFamily=Helvetica;fontSize=11;fontColor=default;labelBackgroundColor=default;flipH=1;" vertex="1" parent="1">
          <mxGeometry x="1200" y="170" width="200" height="40" as="geometry" />
        </mxCell>
        <mxCell id="WlVKkbRP_xvuHNhss2kr-42" value="Response Queue" style="strokeWidth=2;html=1;shape=mxgraph.flowchart.direct_data;whiteSpace=wrap;fontFamily=Helvetica;fontSize=11;fontColor=default;labelBackgroundColor=default;flipH=1;" vertex="1" parent="1">
          <mxGeometry x="1200" y="240" width="200" height="40" as="geometry" />
        </mxCell>
        <mxCell id="WlVKkbRP_xvuHNhss2kr-43" value="Response Queue" style="strokeWidth=2;html=1;shape=mxgraph.flowchart.direct_data;whiteSpace=wrap;fontFamily=Helvetica;fontSize=11;fontColor=default;labelBackgroundColor=default;flipH=1;" vertex="1" parent="1">
          <mxGeometry x="1200" y="310" width="200" height="40" as="geometry" />
        </mxCell>
        <mxCell id="WlVKkbRP_xvuHNhss2kr-44" value="Synchronization Service" style="rounded=1;whiteSpace=wrap;html=1;fontFamily=Helvetica;fontSize=11;labelBackgroundColor=default;fillColor=#ffe6cc;strokeColor=#d79b00;" vertex="1" parent="1">
          <mxGeometry x="1480" y="120" width="150" height="60" as="geometry" />
        </mxCell>
        <mxCell id="WlVKkbRP_xvuHNhss2kr-45" value="Metadata Storage" style="shape=cylinder3;whiteSpace=wrap;html=1;boundedLbl=1;backgroundOutline=1;size=15;fontFamily=Helvetica;fontSize=11;fontColor=#333333;labelBackgroundColor=default;fillColor=#f5f5f5;strokeColor=#666666;" vertex="1" parent="1">
          <mxGeometry x="1498.75" y="250" width="112.5" height="80" as="geometry" />
        </mxCell>
        <mxCell id="WlVKkbRP_xvuHNhss2kr-47" style="edgeStyle=none;shape=connector;rounded=0;orthogonalLoop=1;jettySize=auto;html=1;entryX=0;entryY=0.5;entryDx=0;entryDy=0;entryPerimeter=0;strokeColor=default;align=center;verticalAlign=middle;fontFamily=Helvetica;fontSize=11;fontColor=default;labelBackgroundColor=default;endArrow=classic;" edge="1" parent="1" source="WlVKkbRP_xvuHNhss2kr-33" target="WlVKkbRP_xvuHNhss2kr-40">
          <mxGeometry relative="1" as="geometry" />
        </mxCell>
        <mxCell id="WlVKkbRP_xvuHNhss2kr-51" style="edgeStyle=none;shape=connector;rounded=0;orthogonalLoop=1;jettySize=auto;html=1;entryX=0.005;entryY=0.275;entryDx=0;entryDy=0;entryPerimeter=0;strokeColor=default;align=center;verticalAlign=middle;fontFamily=Helvetica;fontSize=11;fontColor=default;labelBackgroundColor=default;endArrow=classic;" edge="1" parent="1" source="WlVKkbRP_xvuHNhss2kr-44" target="WlVKkbRP_xvuHNhss2kr-41">
          <mxGeometry relative="1" as="geometry" />
        </mxCell>
        <mxCell id="WlVKkbRP_xvuHNhss2kr-52" style="edgeStyle=none;shape=connector;rounded=0;orthogonalLoop=1;jettySize=auto;html=1;entryX=0;entryY=0.5;entryDx=0;entryDy=0;entryPerimeter=0;strokeColor=default;align=center;verticalAlign=middle;fontFamily=Helvetica;fontSize=11;fontColor=default;labelBackgroundColor=default;endArrow=classic;" edge="1" parent="1" source="WlVKkbRP_xvuHNhss2kr-44" target="WlVKkbRP_xvuHNhss2kr-42">
          <mxGeometry relative="1" as="geometry" />
        </mxCell>
        <mxCell id="WlVKkbRP_xvuHNhss2kr-53" style="edgeStyle=none;shape=connector;rounded=0;orthogonalLoop=1;jettySize=auto;html=1;exitX=0;exitY=1;exitDx=0;exitDy=0;entryX=0;entryY=0.5;entryDx=0;entryDy=0;entryPerimeter=0;strokeColor=default;align=center;verticalAlign=middle;fontFamily=Helvetica;fontSize=11;fontColor=default;labelBackgroundColor=default;endArrow=classic;" edge="1" parent="1" source="WlVKkbRP_xvuHNhss2kr-44" target="WlVKkbRP_xvuHNhss2kr-43">
          <mxGeometry relative="1" as="geometry" />
        </mxCell>
        <mxCell id="WlVKkbRP_xvuHNhss2kr-54" style="edgeStyle=none;shape=connector;rounded=0;orthogonalLoop=1;jettySize=auto;html=1;exitX=0.5;exitY=1;exitDx=0;exitDy=0;entryX=0.5;entryY=0;entryDx=0;entryDy=0;entryPerimeter=0;strokeColor=default;align=center;verticalAlign=middle;fontFamily=Helvetica;fontSize=11;fontColor=default;labelBackgroundColor=default;endArrow=classic;" edge="1" parent="1" source="WlVKkbRP_xvuHNhss2kr-44" target="WlVKkbRP_xvuHNhss2kr-45">
          <mxGeometry relative="1" as="geometry" />
        </mxCell>
        <mxCell id="WlVKkbRP_xvuHNhss2kr-55" style="edgeStyle=none;shape=connector;rounded=0;orthogonalLoop=1;jettySize=auto;html=1;entryX=1;entryY=0.767;entryDx=0;entryDy=0;entryPerimeter=0;strokeColor=default;align=center;verticalAlign=middle;fontFamily=Helvetica;fontSize=11;fontColor=default;labelBackgroundColor=default;endArrow=classic;" edge="1" parent="1" source="WlVKkbRP_xvuHNhss2kr-41" target="WlVKkbRP_xvuHNhss2kr-33">
          <mxGeometry relative="1" as="geometry" />
        </mxCell>
        <mxCell id="WlVKkbRP_xvuHNhss2kr-56" style="edgeStyle=none;shape=connector;rounded=0;orthogonalLoop=1;jettySize=auto;html=1;exitX=1;exitY=0.5;exitDx=0;exitDy=0;exitPerimeter=0;entryX=0.96;entryY=0.833;entryDx=0;entryDy=0;entryPerimeter=0;strokeColor=default;align=center;verticalAlign=middle;fontFamily=Helvetica;fontSize=11;fontColor=default;labelBackgroundColor=default;endArrow=classic;" edge="1" parent="1" source="WlVKkbRP_xvuHNhss2kr-42" target="WlVKkbRP_xvuHNhss2kr-34">
          <mxGeometry relative="1" as="geometry" />
        </mxCell>
        <mxCell id="WlVKkbRP_xvuHNhss2kr-57" style="edgeStyle=none;shape=connector;rounded=0;orthogonalLoop=1;jettySize=auto;html=1;entryX=0.99;entryY=0.433;entryDx=0;entryDy=0;entryPerimeter=0;strokeColor=default;align=center;verticalAlign=middle;fontFamily=Helvetica;fontSize=11;fontColor=default;labelBackgroundColor=default;endArrow=classic;" edge="1" parent="1" source="WlVKkbRP_xvuHNhss2kr-43" target="WlVKkbRP_xvuHNhss2kr-36">
          <mxGeometry relative="1" as="geometry" />
        </mxCell>
        <mxCell id="WlVKkbRP_xvuHNhss2kr-60" value="Web Client" style="verticalLabelPosition=bottom;html=1;verticalAlign=top;align=center;strokeColor=none;fillColor=#00BEF2;shape=mxgraph.azure.computer;pointerEvents=1;fontFamily=Helvetica;fontSize=11;fontColor=default;labelBackgroundColor=default;" vertex="1" parent="1">
          <mxGeometry x="890" y="572.5" width="60" height="50" as="geometry" />
        </mxCell>
        <mxCell id="WlVKkbRP_xvuHNhss2kr-61" value="Mobile Client" style="verticalLabelPosition=bottom;html=1;verticalAlign=top;align=center;strokeColor=none;fillColor=#00BEF2;shape=mxgraph.azure.computer;pointerEvents=1;fontFamily=Helvetica;fontSize=11;fontColor=default;labelBackgroundColor=default;" vertex="1" parent="1">
          <mxGeometry x="890" y="672.5" width="60" height="50" as="geometry" />
        </mxCell>
        <mxCell id="WlVKkbRP_xvuHNhss2kr-62" value="Desktop Client" style="verticalLabelPosition=bottom;html=1;verticalAlign=top;align=center;strokeColor=none;fillColor=#00BEF2;shape=mxgraph.azure.computer;pointerEvents=1;fontFamily=Helvetica;fontSize=11;fontColor=default;labelBackgroundColor=default;" vertex="1" parent="1">
          <mxGeometry x="890" y="772.5" width="60" height="50" as="geometry" />
        </mxCell>
        <mxCell id="WlVKkbRP_xvuHNhss2kr-91" style="edgeStyle=none;shape=connector;rounded=0;orthogonalLoop=1;jettySize=auto;html=1;strokeColor=default;align=center;verticalAlign=middle;fontFamily=Helvetica;fontSize=11;fontColor=default;labelBackgroundColor=default;endArrow=classic;" edge="1" parent="1" source="WlVKkbRP_xvuHNhss2kr-64" target="WlVKkbRP_xvuHNhss2kr-61">
          <mxGeometry relative="1" as="geometry" />
        </mxCell>
        <mxCell id="WlVKkbRP_xvuHNhss2kr-64" value="Notification Server" style="rounded=1;whiteSpace=wrap;html=1;fontFamily=Helvetica;fontSize=11;labelBackgroundColor=default;fillColor=#ffe6cc;strokeColor=#d79b00;" vertex="1" parent="1">
          <mxGeometry x="1035" y="590" width="120" height="70" as="geometry" />
        </mxCell>
        <mxCell id="WlVKkbRP_xvuHNhss2kr-83" style="edgeStyle=none;shape=connector;rounded=0;orthogonalLoop=1;jettySize=auto;html=1;strokeColor=default;align=center;verticalAlign=middle;fontFamily=Helvetica;fontSize=11;fontColor=default;labelBackgroundColor=default;endArrow=classic;exitX=1;exitY=0.5;exitDx=0;exitDy=0;exitPerimeter=0;" edge="1" parent="1" source="WlVKkbRP_xvuHNhss2kr-65" target="WlVKkbRP_xvuHNhss2kr-64">
          <mxGeometry relative="1" as="geometry" />
        </mxCell>
        <mxCell id="WlVKkbRP_xvuHNhss2kr-65" value="Synchronization Queue" style="strokeWidth=2;html=1;shape=mxgraph.flowchart.direct_data;whiteSpace=wrap;fontFamily=Helvetica;fontSize=11;labelBackgroundColor=default;direction=west;fillColor=#bac8d3;strokeColor=#23445d;" vertex="1" parent="1">
          <mxGeometry x="1125" y="517.5" width="190" height="35" as="geometry" />
        </mxCell>
        <mxCell id="WlVKkbRP_xvuHNhss2kr-81" style="edgeStyle=none;shape=connector;rounded=0;orthogonalLoop=1;jettySize=auto;html=1;strokeColor=default;align=center;verticalAlign=middle;fontFamily=Helvetica;fontSize=11;fontColor=default;labelBackgroundColor=default;endArrow=classic;" edge="1" parent="1" source="WlVKkbRP_xvuHNhss2kr-70" target="WlVKkbRP_xvuHNhss2kr-73">
          <mxGeometry relative="1" as="geometry" />
        </mxCell>
        <mxCell id="WlVKkbRP_xvuHNhss2kr-85" style="edgeStyle=none;shape=connector;rounded=0;orthogonalLoop=1;jettySize=auto;html=1;entryX=0;entryY=0.5;entryDx=0;entryDy=0;strokeColor=default;align=center;verticalAlign=middle;fontFamily=Helvetica;fontSize=11;fontColor=default;labelBackgroundColor=default;endArrow=classic;" edge="1" parent="1" source="WlVKkbRP_xvuHNhss2kr-70" target="WlVKkbRP_xvuHNhss2kr-74">
          <mxGeometry relative="1" as="geometry" />
        </mxCell>
        <mxCell id="WlVKkbRP_xvuHNhss2kr-70" value="Metadata Server" style="rounded=1;whiteSpace=wrap;html=1;fontFamily=Helvetica;fontSize=11;labelBackgroundColor=default;fillColor=#ffe6cc;strokeColor=#d79b00;" vertex="1" parent="1">
          <mxGeometry x="1370" y="630" width="110" height="55" as="geometry" />
        </mxCell>
        <mxCell id="WlVKkbRP_xvuHNhss2kr-79" style="edgeStyle=none;shape=connector;rounded=0;orthogonalLoop=1;jettySize=auto;html=1;exitX=1;exitY=0.5;exitDx=0;exitDy=0;entryX=0;entryY=0.5;entryDx=0;entryDy=0;strokeColor=default;align=center;verticalAlign=middle;fontFamily=Helvetica;fontSize=11;fontColor=default;labelBackgroundColor=default;endArrow=classic;" edge="1" parent="1" source="WlVKkbRP_xvuHNhss2kr-71" target="WlVKkbRP_xvuHNhss2kr-70">
          <mxGeometry relative="1" as="geometry" />
        </mxCell>
        <mxCell id="WlVKkbRP_xvuHNhss2kr-80" style="edgeStyle=none;shape=connector;rounded=0;orthogonalLoop=1;jettySize=auto;html=1;entryX=0;entryY=0;entryDx=0;entryDy=0;strokeColor=default;align=center;verticalAlign=middle;fontFamily=Helvetica;fontSize=11;fontColor=default;labelBackgroundColor=default;endArrow=classic;exitX=1;exitY=0.5;exitDx=0;exitDy=0;" edge="1" parent="1" source="WlVKkbRP_xvuHNhss2kr-71" target="WlVKkbRP_xvuHNhss2kr-75">
          <mxGeometry relative="1" as="geometry" />
        </mxCell>
        <mxCell id="WlVKkbRP_xvuHNhss2kr-71" value="Load Balancer" style="rhombus;whiteSpace=wrap;html=1;fontFamily=Helvetica;fontSize=11;labelBackgroundColor=default;fillColor=#d5e8d4;strokeColor=#82b366;" vertex="1" parent="1">
          <mxGeometry x="1195" y="657.5" width="100" height="95" as="geometry" />
        </mxCell>
        <mxCell id="WlVKkbRP_xvuHNhss2kr-72" value="Metadata DB" style="shape=cylinder3;whiteSpace=wrap;html=1;boundedLbl=1;backgroundOutline=1;size=15;fontFamily=Helvetica;fontSize=11;fontColor=#333333;labelBackgroundColor=default;fillColor=#f5f5f5;strokeColor=#666666;" vertex="1" parent="1">
          <mxGeometry x="1545" y="580" width="90" height="72.5" as="geometry" />
        </mxCell>
        <mxCell id="WlVKkbRP_xvuHNhss2kr-82" style="edgeStyle=none;shape=connector;rounded=0;orthogonalLoop=1;jettySize=auto;html=1;strokeColor=default;align=center;verticalAlign=middle;fontFamily=Helvetica;fontSize=11;fontColor=default;labelBackgroundColor=default;endArrow=classic;" edge="1" parent="1" source="WlVKkbRP_xvuHNhss2kr-73" target="WlVKkbRP_xvuHNhss2kr-65">
          <mxGeometry relative="1" as="geometry" />
        </mxCell>
        <mxCell id="WlVKkbRP_xvuHNhss2kr-73" value="Synchronization Server" style="rounded=1;whiteSpace=wrap;html=1;fontFamily=Helvetica;fontSize=11;labelBackgroundColor=default;fillColor=#ffe6cc;strokeColor=#d79b00;" vertex="1" parent="1">
          <mxGeometry x="1365" y="507.5" width="110" height="52.5" as="geometry" />
        </mxCell>
        <mxCell id="WlVKkbRP_xvuHNhss2kr-74" value="Metadata Cache Server" style="rounded=1;whiteSpace=wrap;html=1;fontFamily=Helvetica;fontSize=11;labelBackgroundColor=default;fillColor=#e1d5e7;strokeColor=#9673a6;" vertex="1" parent="1">
          <mxGeometry x="1535" y="680" width="110" height="55" as="geometry" />
        </mxCell>
        <mxCell id="WlVKkbRP_xvuHNhss2kr-86" style="edgeStyle=none;shape=connector;rounded=0;orthogonalLoop=1;jettySize=auto;html=1;entryX=0;entryY=0.5;entryDx=0;entryDy=0;strokeColor=default;align=center;verticalAlign=middle;fontFamily=Helvetica;fontSize=11;fontColor=default;labelBackgroundColor=default;endArrow=classic;" edge="1" parent="1" source="WlVKkbRP_xvuHNhss2kr-75" target="WlVKkbRP_xvuHNhss2kr-76">
          <mxGeometry relative="1" as="geometry" />
        </mxCell>
        <mxCell id="WlVKkbRP_xvuHNhss2kr-87" style="edgeStyle=none;shape=connector;rounded=0;orthogonalLoop=1;jettySize=auto;html=1;exitX=1;exitY=0.5;exitDx=0;exitDy=0;entryX=0;entryY=0.5;entryDx=0;entryDy=0;strokeColor=default;align=center;verticalAlign=middle;fontFamily=Helvetica;fontSize=11;fontColor=default;labelBackgroundColor=default;endArrow=classic;" edge="1" parent="1" source="WlVKkbRP_xvuHNhss2kr-75" target="WlVKkbRP_xvuHNhss2kr-77">
          <mxGeometry relative="1" as="geometry" />
        </mxCell>
        <mxCell id="WlVKkbRP_xvuHNhss2kr-75" value="Block Server" style="rounded=1;whiteSpace=wrap;html=1;fontFamily=Helvetica;fontSize=11;labelBackgroundColor=default;fillColor=#ffe6cc;strokeColor=#d79b00;" vertex="1" parent="1">
          <mxGeometry x="1355" y="780" width="110" height="55" as="geometry" />
        </mxCell>
        <mxCell id="WlVKkbRP_xvuHNhss2kr-76" value="Block/Cloud Storage" style="shape=datastore;whiteSpace=wrap;html=1;fontFamily=Helvetica;fontSize=11;fontColor=#333333;labelBackgroundColor=default;fillColor=#f5f5f5;strokeColor=#666666;" vertex="1" parent="1">
          <mxGeometry x="1525" y="772.5" width="130" height="60" as="geometry" />
        </mxCell>
        <mxCell id="WlVKkbRP_xvuHNhss2kr-77" value="Block Storage&lt;div&gt;&amp;nbsp;Cache Server&lt;/div&gt;" style="rounded=1;whiteSpace=wrap;html=1;fontFamily=Helvetica;fontSize=11;labelBackgroundColor=default;fillColor=#e1d5e7;strokeColor=#9673a6;" vertex="1" parent="1">
          <mxGeometry x="1535" y="860" width="110" height="55" as="geometry" />
        </mxCell>
        <mxCell id="WlVKkbRP_xvuHNhss2kr-78" style="edgeStyle=none;shape=connector;rounded=0;orthogonalLoop=1;jettySize=auto;html=1;entryX=0.389;entryY=0.129;entryDx=0;entryDy=0;entryPerimeter=0;strokeColor=default;align=center;verticalAlign=middle;fontFamily=Helvetica;fontSize=11;fontColor=default;labelBackgroundColor=default;endArrow=classic;" edge="1" parent="1" source="WlVKkbRP_xvuHNhss2kr-71" target="WlVKkbRP_xvuHNhss2kr-65">
          <mxGeometry relative="1" as="geometry" />
        </mxCell>
        <mxCell id="WlVKkbRP_xvuHNhss2kr-84" style="edgeStyle=none;shape=connector;rounded=0;orthogonalLoop=1;jettySize=auto;html=1;exitX=1;exitY=0.5;exitDx=0;exitDy=0;entryX=0;entryY=0.5;entryDx=0;entryDy=0;entryPerimeter=0;strokeColor=default;align=center;verticalAlign=middle;fontFamily=Helvetica;fontSize=11;fontColor=default;labelBackgroundColor=default;endArrow=classic;" edge="1" parent="1" source="WlVKkbRP_xvuHNhss2kr-70" target="WlVKkbRP_xvuHNhss2kr-72">
          <mxGeometry relative="1" as="geometry" />
        </mxCell>
        <mxCell id="WlVKkbRP_xvuHNhss2kr-90" style="edgeStyle=none;shape=connector;rounded=0;orthogonalLoop=1;jettySize=auto;html=1;entryX=1;entryY=0.5;entryDx=0;entryDy=0;entryPerimeter=0;strokeColor=default;align=center;verticalAlign=middle;fontFamily=Helvetica;fontSize=11;fontColor=default;labelBackgroundColor=default;endArrow=classic;" edge="1" parent="1" source="WlVKkbRP_xvuHNhss2kr-64" target="WlVKkbRP_xvuHNhss2kr-60">
          <mxGeometry relative="1" as="geometry" />
        </mxCell>
        <mxCell id="WlVKkbRP_xvuHNhss2kr-92" style="edgeStyle=none;shape=connector;rounded=0;orthogonalLoop=1;jettySize=auto;html=1;entryX=0.95;entryY=0.39;entryDx=0;entryDy=0;entryPerimeter=0;strokeColor=default;align=center;verticalAlign=middle;fontFamily=Helvetica;fontSize=11;fontColor=default;labelBackgroundColor=default;endArrow=classic;" edge="1" parent="1" source="WlVKkbRP_xvuHNhss2kr-64" target="WlVKkbRP_xvuHNhss2kr-62">
          <mxGeometry relative="1" as="geometry" />
        </mxCell>
      </root>
    </mxGraphModel>
  </diagram>
</mxfile>
